# xmcd CD database file
#
# Track frame offsets:
#	150
#	23475
#	41772
#	63053
#	82258
#	119595
#	149508
#	176204
#	198289
#	213683
#	237503
#
# Disc length: 3416 seconds
#
# Revision: 0
# Processed by: cddbd v1.5PL3 Copyright (c) Steve Scherf et al.
# Submitted via: CDex 1.51
#
DISCID=a60d560b
DTITLE=Sojiro - Iairaikere
DYEAR=2002
DGENRE=New Age
TTITLE0=(Japanese Title)
TTITLE1=(Japanese Title)
TTITLE2=OIWAKE
TTITLE3=(Japanese Title)
TTITLE4=UNARIKAMI
TTITLE5=(Japanese Title)
TTITLE6=Beautiful Hill
TTITLE7=The Long And Irish Road
TTITLE8=(Jananese Title)
TTITLE9=(Japanese Title)
TTITLE10=Thanks to The Earth
EXTD=YEAR: 2002
EXTT0=
EXTT1=
EXTT2=
EXTT3=
EXTT4=
EXTT5=
EXTT6=
EXTT7=
EXTT8=
EXTT9=
EXTT10=
PLAYORDER=
